<svg xmlns="http://www.w3.org/2000/svg" width="250" height="250" viewBox="0 0 256 256" role="img" aria-labelledby="title desc">
<title id="title">Base Component - 极速CRUD生成</title>
<desc id="desc">背景使用类似 Vite 的紫蓝渐变环形边框；闪电上下分层但不遮挡 CRUD 图标；新增为更大加号；删除为标准垃圾桶；眼睛无白色点。</desc>
<defs>
	<!-- Vite 风格紫蓝渐变 -->
	<linearGradient id="viteEdge" x1="0" y1="0" x2="1" y2="1" gradientTransform="rotate(20)">
		<stop offset="0%" stop-color="#41D1FF"/>
		<stop offset="100%" stop-color="#BD34FE"/>
	</linearGradient>
	<linearGradient id="bolt" x1="0" y1="0" x2="1" y2="1">
		<stop offset="0%" stop-color="#fbbf24"/><stop offset="100%" stop-color="#fb7185"/>
	</linearGradient>
	<linearGradient id="crud" x1="0" y1="0" x2="1" y2="1">
		<stop offset="0%" stop-color="#22d3ee"/><stop offset="100%" stop-color="#8b5cf6"/>
	</linearGradient>
	<filter id="glow" x="-50%" y="-50%" width="200%" height="200%">
		<feGaussianBlur in="SourceGraphic" stdDeviation="3" result="b"/>
		<feMerge><feMergeNode in="b"/><feMergeNode in="SourceGraphic"/></feMerge>
	</filter>
	<filter id="shadow" x="-50%" y="-50%" width="200%" height="200%">
		<feDropShadow dx="0" dy="2" stdDeviation="3" flood-color="#000" flood-opacity="0.35"/>
	</filter>

	<!-- 镂空背景的环形遮罩（调环宽：改内矩形 24/width/height/rx） -->
	<mask id="ring" maskUnits="userSpaceOnUse">
		<rect x="8" y="8" width="240" height="240" rx="28" fill="#fff"/>
		<rect x="24" y="24" width="208" height="208" rx="22" fill="#000"/>
	</mask>
</defs>

<!-- 左侧列表线 -->
<g stroke="#34d399" stroke-width="6" stroke-linecap="round" opacity="0.9">
	<line x1="20" y1="104" x2="84" y2="104"/>
	<line x1="20" y1="132" x2="68" y2="132"/>
	<line x1="20" y1="160" x2="56" y2="160"/>
</g>

<!-- 闪电（底层：在卡片下，可遮挡边框） -->
<path d="M40 168 H112 L94 224 L186 112 H130 L150 56 Z" fill="url(#bolt)" filter="url(#glow)"/>

<!-- 文档卡片（底层外观与深色分离） -->
<g transform="translate(102,44) rotate(-8 64 84)" filter="url(#shadow)">
	<rect x="0" y="0" width="128" height="168" rx="16" fill="rgba(229,231,235,0.08)" stroke="url(#crud)" stroke-width="5"/>

	<!-- 深色分离层 -->
	<g stroke="#0b1020" stroke-opacity="0.6" stroke-width="7" stroke-linecap="round" stroke-linejoin="round" fill="none">
		<!-- Read -->
		<g transform="translate(74,40)">
			<path d="M6 21c8-10 32-10 40 0c-8 10-32 10-40 0z"/>
			<circle cx="26" cy="21" r="4.5" fill="#0b1020" stroke="none"/>
		</g>
		<!-- Update -->
		<g transform="translate(18,98)">
			<path d="M8 36l10-3l20-20c1.5-1.5 1.5-4 0-5.5v0c-1.5-1.5-4-1.5-5.5 0l-20 20l-3 10z"/>
			<line x1="28" y1="12" x2="34" y2="18"/>
		</g>
		<!-- Delete（垃圾桶分离层） -->
		<g transform="translate(74,96)">
			<rect x="12" y="14" width="24" height="4" rx="2"/>
			<rect x="20" y="10" width="8" height="4" rx="2"/>
			<path d="M14 20h20l-2 22h-16l-2-22z"/>
			<line x1="20" y1="24" x2="20" y2="36"/>
			<line x1="28" y1="24" x2="28" y2="36"/>
		</g>
	</g>
</g>

<!-- 闪电（上层：在卡片上，但在 CRUD 图标下） -->
<path d="M40 168 H112 L94 224 L186 112 H130 L150 56 Z" fill="url(#bolt)" filter="url(#glow)"/>

<!-- 前景：CRUD 图标（置顶，不被闪电遮挡） -->
<g transform="translate(102,44) rotate(-8 64 84)">
	<g stroke="url(#crud)" stroke-width="4.2" stroke-linecap="round" stroke-linejoin="round" fill="none" opacity="0.98" filter="url(#glow)">
		<!-- Create: 更大加号 -->
		<g transform="translate(18,44)">
			<g fill="url(#crud)" stroke="none" filter="url(#shadow)">
				<rect x="18" y="7" width="6" height="28" rx="3"/>
				<rect x="7" y="18" width="28" height="6" rx="3"/>
			</g>
		</g>
		<!-- Read：去掉白点，改渐变 -->
		<g transform="translate(74,40)">
			<path d="M6 21c8-10 32-10 40 0c-8 10-32 10-40 0z"/>
			<circle cx="26" cy="21" r="3.6" fill="url(#crud)" stroke="none" opacity="0.95"/>
		</g>
		<!-- Update -->
		<g transform="translate(18,98)">
			<path d="M8 36l10-3l20-20c1.5-1.5 1.5-4 0-5.5v0c-1.5-1.5-4-1.5-5.5 0l-20 20l-3 10z"/>
			<line x1="28" y1="12" x2="34" y2="18"/>
		</g>
		<!-- Delete：垃圾桶描边 -->
		<g transform="translate(74,96)">
			<rect x="12" y="14" width="24" height="4" rx="2"/>
			<rect x="20" y="10" width="8" height="4" rx="2"/>
			<path d="M14 20h20l-2 22h-16l-2-22z"/>
			<line x1="20" y1="24" x2="20" y2="36"/>
			<line x1="28" y1="24" x2="28" y2="36"/>
		</g>
	</g>
</g>

<!-- 星点 -->
<g fill="#f59e0b" opacity="0.9">
	<circle cx="92" cy="86" r="2.4"/>
	<circle cx="98" cy="70" r="1.8"/>
	<circle cx="78" cy="124" r="1.6"/>
</g>
</svg>